<?xml version="1.0" encoding="utf-8"?>
<!-- Generator: Adobe Illustrator 16.0.0, SVG Export Plug-In . SVG Version: 6.00 Build 0)  -->
<!DOCTYPE svg PUBLIC "-//W3C//DTD SVG 1.1//EN" "http://www.w3.org/Graphics/SVG/1.1/DTD/svg11.dtd">
<svg version="1.1" id="Layer_1" xmlns="http://www.w3.org/2000/svg" xmlns:xlink="http://www.w3.org/1999/xlink" x="0px" y="0px"
	 width="139.47px" height="30px" viewBox="0 0 139.47 30" enable-background="new 0 0 139.47 30" xml:space="preserve">
<path d="M16.814,7.284c3.73,0,6.766,3.035,6.766,6.766c0,3.729-3.035,6.766-6.766,6.766c-3.73,0-6.766-3.036-6.766-6.766
	C10.049,10.319,13.084,7.284,16.814,7.284 M16.814,6.317c-4.27,0-7.732,3.463-7.732,7.733c0,4.271,3.462,7.732,7.732,7.732
	s7.732-3.462,7.732-7.732C24.547,9.78,21.084,6.317,16.814,6.317L16.814,6.317z M21.125,16.635l-0.044-0.131
	c-0.102-0.305-0.438-0.621-0.748-0.707l-1.143-0.313c-0.31-0.083-0.751,0.03-0.979,0.257l-0.413,0.414
	c-1.503-0.407-2.682-1.586-3.088-3.089l0.414-0.414c0.227-0.227,0.34-0.668,0.255-0.979l-0.311-1.143
	c-0.084-0.31-0.404-0.646-0.707-0.748l-0.13-0.043c-0.305-0.102-0.74,0-0.967,0.228l-0.619,0.619
	c-0.11,0.11-0.181,0.425-0.181,0.425c-0.021,1.965,0.75,3.858,2.139,5.249c1.385,1.385,3.272,2.154,5.23,2.139
	c0.01,0,0.333-0.07,0.444-0.18l0.619-0.621C21.125,17.375,21.227,16.938,21.125,16.635z"/>
<g id="gmail">
	<path d="M92.607,6.412H77.329c-1.051,0-1.91,0.859-1.91,1.909v11.457c0,1.053,0.859,1.91,1.91,1.91h15.277
		c1.051,0,1.907-0.857,1.907-1.91V8.321C94.515,7.271,93.657,6.412,92.607,6.412z M92.607,19.777h-1.911v-8.402l-5.729,3.629
		l-5.73-3.629v8.402h-1.906V8.321h1.146l6.491,4.01l6.492-4.01h1.146L92.607,19.777L92.607,19.777z"/>
</g>
<path d="M41.805,21.951h1.453V10.443h-1.453V21.951z M58.154,10.443V5.488h-7.259v4.956h-2.842v11.507h11.924V10.443H58.154z
	 M53.043,19.557h-1.401v-1.401h1.401V19.557z M53.043,17.237h-1.401v-1.398h1.401V17.237z M53.043,15.03h-1.401v-1.401h1.401V15.03z
	 M55.63,19.557h-1.401v-1.401h1.401V19.557z M55.63,17.237h-1.401v-1.398h1.401V17.237z M55.63,15.03h-1.401v-1.401h1.401V15.03z
	 M58.214,19.557h-1.399v-1.401h1.399V19.557z M58.214,17.237h-1.399v-1.398h1.399V17.237z M58.214,15.03h-1.399v-1.401h1.399V15.03z
	 M59.076,12.412h-9.104v-1.24h0.923v0.62h7.259v-0.62h0.922V12.412z M43.829,22.61h3.665V9.164h-3.665V22.61z M57.191,6.869h-5.171
	V6.383h5.171V6.869z M57.191,8.162h-5.171V7.676h5.171V8.162z"/>
<g>
	<path d="M129.515,7.868c-0.128-0.176-0.333-0.279-0.55-0.279h-15.304c-0.028,0-0.059,0.001-0.087,0.005l-0.63-1.815
		c-0.065-0.188-0.209-0.337-0.394-0.41l-3.175-1.247c-0.35-0.137-0.743,0.035-0.882,0.384c-0.137,0.349,0.035,0.744,0.385,0.881
		l2.883,1.133l3.528,10.17c-0.155,0.055-0.287,0.174-0.348,0.341l-1.021,2.834c-0.063,0.174-0.036,0.367,0.069,0.518
		c0.107,0.151,0.28,0.241,0.465,0.241h0.523c-0.325,0.361-0.523,0.837-0.523,1.36c0,1.126,0.915,2.04,2.04,2.04
		s2.04-0.914,2.04-2.04c0-0.523-0.199-0.999-0.523-1.36h4.448c-0.325,0.361-0.524,0.837-0.524,1.36c0,1.126,0.916,2.04,2.041,2.04
		s2.04-0.914,2.04-2.04c0-0.523-0.199-0.999-0.523-1.36h0.637c0.313,0,0.567-0.253,0.567-0.567c0-0.313-0.254-0.565-0.567-0.565
		h-10.869l0.632-1.756c0.082,0.034,0.17,0.056,0.263,0.056h9.975c0.296,0,0.558-0.191,0.648-0.473l2.833-8.842
		C129.679,8.269,129.642,8.043,129.515,7.868z M116.496,22.892c-0.5,0-0.907-0.406-0.907-0.907c0-0.5,0.407-0.906,0.907-0.906
		s0.906,0.406,0.906,0.906C117.402,22.485,116.996,22.892,116.496,22.892z M123.978,22.892c-0.5,0-0.907-0.406-0.907-0.907
		c0-0.5,0.407-0.906,0.907-0.906s0.906,0.406,0.906,0.906C124.884,22.485,124.478,22.892,123.978,22.892z M127.542,10.479h-3.47
		v-1.53h3.96L127.542,10.479z M126.543,13.596h-2.471v-1.757h3.034L126.543,13.596z M119.575,13.596v-1.757h3.137v1.757H119.575z
		 M122.712,14.956v1.474h-3.137v-1.474H122.712z M115.047,11.839h3.168v1.757h-2.558L115.047,11.839z M119.575,10.479v-1.53h3.137
		v1.53H119.575z M118.215,8.949v1.53h-3.641l-0.53-1.53H118.215z M116.129,14.956h2.086v1.474h-1.575L116.129,14.956z
		 M124.072,16.43v-1.474h2.035l-0.473,1.474H124.072z"/>
</g>
</svg>
