<?xml version="1.0" encoding="utf-8"?>
<!-- Generator: Adobe Illustrator 16.0.0, SVG Export Plug-In . SVG Version: 6.00 Build 0)  -->
<!DOCTYPE svg PUBLIC "-//W3C//DTD SVG 1.1//EN" "http://www.w3.org/Graphics/SVG/1.1/DTD/svg11.dtd">
<svg version="1.1" id="Layer_1" xmlns="http://www.w3.org/2000/svg" xmlns:xlink="http://www.w3.org/1999/xlink" x="0px" y="0px"
	 width="100px" height="25px" viewBox="0 0 100 25" enable-background="new 0 0 100 25" xml:space="preserve">
<path fill="#00551A" d="M6.811,21.982c-2.689-8.049,7.408-11.11,10.162-20.1c0.169,7.399-1.947,19.727-10.197,19.719
	c-0.019,0.035-0.037,0.067-0.056,0.103c8.607,0.618,10.996-11.32,10.653-20.993C12.891,11.971,3.49,13.252,6.356,22.119
	C6.511,22.053,6.734,21.996,6.811,21.982"/>
<path fill="#00551A" d="M1.018,24.432c7.155-1.109,10.479-8.547,12.607-12.268C9.341,20.055,4.708,24.225,1,23.822
	C1,24.034,1.036,24.305,1.018,24.432"/>
<path fill="#00551A" d="M34.592,21.575C31.903,13.527,42,10.464,44.753,1.476c0.169,7.399-1.947,19.726-10.197,19.717
	c-0.019,0.035-0.037,0.068-0.056,0.104c8.607,0.618,10.996-11.32,10.653-20.993c-4.481,11.261-13.882,12.542-11.016,21.408
	C34.292,21.646,34.515,21.588,34.592,21.575"/>
<path fill="#00551A" d="M28.799,24.025c7.155-1.11,10.479-8.547,12.607-12.269c-4.284,7.892-8.917,12.062-12.625,11.658
	C28.781,23.626,28.817,23.896,28.799,24.025"/>
<path fill="#00551A" d="M59.63,22.05c-2.688-8.048,7.408-11.11,10.162-20.099c0.169,7.399-1.946,19.727-10.196,19.718
	c-0.019,0.035-0.037,0.067-0.057,0.103c8.607,0.619,10.996-11.319,10.652-20.993C65.71,12.04,56.311,13.32,59.176,22.188
	C59.332,22.122,59.555,22.064,59.63,22.05"/>
<path fill="#00551A" d="M53.837,24.5c7.156-1.109,10.479-8.547,12.606-12.268c-4.282,7.891-8.916,12.061-12.625,11.657
	C53.82,24.102,53.857,24.373,53.837,24.5"/>
<path fill="#00551A" d="M85.146,22.05c-2.688-8.048,7.408-11.11,10.162-20.099c0.168,7.399-1.947,19.727-10.197,19.718
	c-0.019,0.035-0.037,0.067-0.057,0.103c8.607,0.619,10.996-11.319,10.653-20.993C91.227,12.04,81.826,13.32,84.691,22.188
	C84.848,22.122,85.07,22.064,85.146,22.05"/>
<path fill="#00551A" d="M79.354,24.5c7.155-1.109,10.479-8.547,12.606-12.268c-4.282,7.891-8.917,12.061-12.625,11.657
	C79.335,24.102,79.373,24.373,79.354,24.5"/>
</svg>
