<?xml version="1.0" encoding="utf-8"?>
<!-- Generator: Adobe Illustrator 16.0.0, SVG Export Plug-In . SVG Version: 6.00 Build 0)  -->
<!DOCTYPE svg PUBLIC "-//W3C//DTD SVG 1.1//EN" "http://www.w3.org/Graphics/SVG/1.1/DTD/svg11.dtd">
<svg version="1.1" id="Layer_1" xmlns="http://www.w3.org/2000/svg" xmlns:xlink="http://www.w3.org/1999/xlink" x="0px" y="0px"
	 width="169.535px" height="29.07px" viewBox="0 0 169.535 29.07" enable-background="new 0 0 169.535 29.07" xml:space="preserve">
<path fill="#36609F" d="M17,15.268h-1.978c0,3.159,0,7.05,0,7.05h-2.929c0,0,0-3.851,0-7.05h-1.394v-2.49h1.394v-1.611
	c0-1.154,0.547-2.958,2.956-2.958l2.17,0.009v2.418c0,0-1.32,0-1.575,0c-0.257,0-0.622,0.128-0.622,0.678v1.465h2.234L17,15.268z"/>
<path fill="#2AA9E0" d="M45.293,11.635c0.007,0.124,0.009,0.248,0.009,0.374c0,3.826-2.912,8.237-8.236,8.237
	c-1.636,0-3.156-0.479-4.438-1.302c0.228,0.027,0.458,0.04,0.691,0.04c1.357,0,2.604-0.461,3.594-1.237
	c-1.266-0.025-2.335-0.861-2.703-2.011c0.176,0.033,0.357,0.052,0.544,0.052c0.264,0,0.521-0.036,0.762-0.102
	c-1.322-0.267-2.321-1.438-2.321-2.839c0-0.012,0-0.023,0-0.036c0.391,0.217,0.837,0.347,1.312,0.361
	c-0.777-0.518-1.288-1.404-1.288-2.409c0-0.531,0.143-1.029,0.392-1.456c1.427,1.751,3.561,2.904,5.966,3.024
	c-0.049-0.211-0.075-0.433-0.075-0.659c0-1.599,1.296-2.895,2.896-2.895c0.831,0,1.584,0.353,2.112,0.913
	c0.659-0.129,1.279-0.369,1.839-0.701c-0.217,0.677-0.676,1.242-1.272,1.601c0.585-0.069,1.144-0.225,1.662-0.454
	C46.35,10.717,45.86,11.228,45.293,11.635z"/>
<g>
	<g>
		<path fill="#DB5442" d="M96.582,15.782c-0.385-0.29-1.225-0.883-1.225-1.279c0-0.467,0.133-0.697,0.836-1.246
			c0.718-0.563,1.229-1.302,1.229-2.222c0-1.002-0.41-1.911-1.181-2.352h1.093l0.928-0.977c0,0-3.07,0-4.156,0
			c-2.11,0-3.871,1.557-3.871,3.27c0,1.748,1.156,3.144,3.142,3.144c0.138,0,0.272-0.01,0.403-0.018
			c-0.129,0.246-0.221,0.522-0.221,0.813c0,0.484,0.267,0.763,0.598,1.083c-0.249,0-0.491,0.007-0.754,0.007
			c-2.416,0-4.108,1.664-4.108,3.258c0,1.573,2.039,2.555,4.455,2.555c2.755,0,4.449-1.563,4.449-3.134
			C98.197,17.424,97.925,16.789,96.582,15.782z M91.799,10.949c-0.193-1.472,0.559-2.599,1.678-2.564
			c1.121,0.034,2.082,1.241,2.273,2.712c0.193,1.473-0.451,2.421-1.572,2.387C93.057,13.45,91.992,12.421,91.799,10.949z
			 M93.738,21.123c-1.668,0-2.875-1.06-2.875-2.327c0-1.245,1.416-2.319,3.086-2.3c0.389,0.004,0.753,0.065,1.082,0.173
			c0.906,0.631,1.638,1.024,1.822,1.743c0.033,0.145,0.054,0.294,0.054,0.447C96.906,20.131,96.088,21.123,93.738,21.123z"/>
	</g>
</g>
<polygon fill="#DB5442" points="103.393,10.778 101.475,10.778 101.475,12.695 100.514,12.695 100.514,10.778 98.596,10.778 
	98.596,9.819 100.514,9.819 100.514,7.9 101.475,7.9 101.475,9.819 103.393,9.819 "/>
<g>
	<g>
		<path fill="#ED3437" d="M120.602,13.445h0.903v-2.211l1.054-3.121h-0.92l-0.562,2.133h-0.056l-0.588-2.133h-0.912l1.078,3.22
			v2.112H120.602z M125.218,17.387c-0.05,0-0.103,0.012-0.151,0.035c-0.049,0.022-0.098,0.059-0.146,0.11v2.226
			c0.059,0.056,0.115,0.101,0.169,0.125c0.056,0.025,0.113,0.038,0.173,0.038c0.088,0,0.152-0.024,0.192-0.076
			c0.041-0.05,0.062-0.132,0.062-0.247v-1.842c0-0.123-0.021-0.214-0.076-0.275C125.389,17.418,125.314,17.387,125.218,17.387z
			 M126.169,13.504c0.149,0,0.308-0.045,0.466-0.127c0.16-0.083,0.315-0.208,0.463-0.368v0.436h0.805V9.511h-0.805v2.986
			c-0.074,0.086-0.158,0.154-0.246,0.212c-0.092,0.055-0.168,0.082-0.228,0.082c-0.074,0-0.13-0.021-0.164-0.063
			c-0.03-0.042-0.052-0.107-0.052-0.202V9.511h-0.803v3.288c0,0.234,0.049,0.41,0.142,0.525
			C125.844,13.443,125.982,13.504,126.169,13.504z M123.784,13.544c0.362,0,0.651-0.096,0.858-0.288
			c0.209-0.192,0.313-0.454,0.313-0.792v-2.033c0-0.298-0.108-0.546-0.317-0.735c-0.214-0.189-0.484-0.283-0.816-0.283
			c-0.366,0-0.66,0.09-0.873,0.271c-0.217,0.179-0.325,0.422-0.325,0.728v2.04c0,0.334,0.104,0.599,0.315,0.797
			C123.15,13.445,123.432,13.544,123.784,13.544z M123.449,10.381c0-0.086,0.031-0.156,0.093-0.209
			c0.062-0.054,0.14-0.079,0.24-0.079c0.104,0,0.19,0.025,0.256,0.079c0.067,0.053,0.099,0.123,0.099,0.209v2.142
			c0,0.105-0.031,0.19-0.099,0.249c-0.063,0.062-0.147,0.09-0.256,0.09s-0.189-0.026-0.245-0.09
			c-0.059-0.058-0.088-0.141-0.088-0.249V10.381z M127.68,17.399c-0.113,0-0.195,0.033-0.246,0.102
			c-0.05,0.062-0.074,0.17-0.074,0.319v0.36h0.634v-0.36c0-0.149-0.025-0.259-0.076-0.319
			C127.868,17.432,127.788,17.399,127.68,17.399z M128.383,14.686h-8.955c-1.424,0-2.578,1.155-2.578,2.578v2.072
			c0,1.422,1.154,2.579,2.578,2.579h8.955c1.424,0,2.578-1.157,2.578-2.579v-2.072C130.961,15.841,129.807,14.686,128.383,14.686z
			 M121.311,16.298h-0.834v4.138h-0.805v-4.138h-0.832v-0.703h2.471V16.298z M123.661,20.436h-0.713v-0.392
			c-0.134,0.144-0.271,0.255-0.413,0.33c-0.143,0.077-0.28,0.113-0.416,0.113c-0.163,0-0.287-0.053-0.373-0.16
			c-0.082-0.106-0.122-0.264-0.122-0.479v-2.986h0.711v2.74c0,0.085,0.017,0.146,0.047,0.183c0.029,0.041,0.077,0.058,0.146,0.058
			c0.051,0,0.117-0.024,0.197-0.074c0.082-0.052,0.155-0.115,0.224-0.192v-2.712h0.713V20.436z M126.25,19.698
			c0,0.252-0.057,0.443-0.169,0.582c-0.108,0.135-0.272,0.199-0.481,0.199c-0.143,0-0.267-0.023-0.375-0.077
			c-0.108-0.053-0.213-0.131-0.306-0.24v0.272h-0.721v-4.841h0.721v1.558c0.097-0.106,0.198-0.19,0.306-0.248
			c0.11-0.057,0.219-0.085,0.332-0.085c0.225,0,0.396,0.076,0.517,0.229c0.12,0.153,0.178,0.376,0.178,0.668L126.25,19.698
			L126.25,19.698z M128.727,18.736h-1.367v0.672c0,0.188,0.024,0.319,0.07,0.394c0.049,0.071,0.129,0.107,0.241,0.107
			c0.119,0,0.203-0.03,0.251-0.094c0.045-0.061,0.07-0.198,0.07-0.408v-0.162h0.734v0.183c0,0.367-0.09,0.642-0.271,0.829
			c-0.177,0.185-0.445,0.275-0.802,0.275c-0.318,0-0.571-0.098-0.756-0.296c-0.184-0.192-0.275-0.464-0.275-0.809v-1.604
			c0-0.309,0.102-0.563,0.303-0.758c0.204-0.194,0.463-0.291,0.783-0.291c0.327,0,0.578,0.09,0.753,0.271
			c0.174,0.181,0.265,0.438,0.265,0.778V18.736L128.727,18.736z"/>
	</g>
</g>
<path fill="#F48020" d="M146.466,21.666c-1.034,0-1.873-0.838-1.873-1.874c0-1.035,0.839-1.872,1.873-1.872
	c1.036,0,1.874,0.836,1.874,1.872S147.502,21.666,146.466,21.666z M151.167,21.678c0-1.767-0.687-3.427-1.927-4.674
	c-1.24-1.248-2.891-1.934-4.646-1.934v-2.703c5.114,0,9.276,4.176,9.276,9.311H151.167z M155.941,21.681
	c0-6.288-5.088-11.405-11.342-11.405V7.573c7.746,0,14.047,6.329,14.047,14.108H155.941z"/>
<path fill="#36609F" d="M-76.741,50.104c-4.206,0-7.616,3.41-7.616,7.616c0,4.207,3.41,7.616,7.616,7.616
	c4.206,0,7.616-3.409,7.616-7.616C-69.125,53.514-72.535,50.104-76.741,50.104z M-75.109,57.723h-1.067c0,1.705,0,3.805,0,3.805
	h-1.581c0,0,0-2.077,0-3.805h-0.752v-1.344h0.752v-0.871c0-0.623,0.295-1.596,1.596-1.596l1.171,0.004v1.306c0,0-0.712,0-0.85,0
	c-0.139,0-0.336,0.069-0.336,0.366v0.791h1.206L-75.109,57.723z"/>
<path fill="#2AA9E0" d="M-57.36,50.238c-4.206,0-7.616,3.41-7.616,7.617s3.41,7.615,7.616,7.615s7.616-3.408,7.616-7.615
	S-53.154,50.238-57.36,50.238z M-54.332,56.303c0.003,0.066,0.005,0.133,0.005,0.201c0,2.063-1.572,4.446-4.446,4.446
	c-0.883,0-1.704-0.26-2.396-0.702c0.123,0.014,0.247,0.021,0.373,0.021c0.732,0,1.406-0.249,1.94-0.668
	c-0.683-0.014-1.26-0.465-1.459-1.086c0.095,0.019,0.193,0.028,0.294,0.028c0.143,0,0.281-0.021,0.411-0.056
	c-0.714-0.144-1.253-0.775-1.253-1.531c0-0.007,0-0.015,0-0.021c0.211,0.117,0.452,0.188,0.708,0.195
	c-0.419-0.28-0.695-0.759-0.695-1.301c0-0.287,0.077-0.556,0.212-0.785c0.77,0.945,1.922,1.565,3.22,1.632
	c-0.026-0.114-0.041-0.233-0.041-0.356c0-0.861,0.7-1.562,1.563-1.562c0.449,0,0.855,0.19,1.14,0.493
	c0.355-0.07,0.69-0.2,0.993-0.379c-0.117,0.364-0.365,0.67-0.687,0.862c0.316-0.036,0.617-0.12,0.897-0.243
	C-53.761,55.807-54.026,56.082-54.332,56.303z"/>
<g>
	<path fill="#DB5442" d="M-39.226,54.008c-0.604-0.019-1.01,0.59-0.905,1.384c0.104,0.794,0.679,1.351,1.284,1.368
		s0.953-0.494,0.849-1.289C-38.103,54.678-38.621,54.025-39.226,54.008z"/>
	<path fill="#DB5442" d="M-38.971,58.386c-0.902-0.011-1.666,0.569-1.666,1.241c0,0.686,0.652,1.256,1.553,1.256
		c1.268,0,1.709-0.535,1.709-1.221c0-0.084-0.01-0.164-0.029-0.242c-0.099-0.388-0.494-0.602-0.983-0.941
		C-38.565,58.422-38.761,58.388-38.971,58.386z"/>
	<path fill="#DB5442" d="M-37.679,49.834c-4.206,0-7.616,3.41-7.616,7.615c0,4.207,3.41,7.616,7.616,7.616
		c4.206,0,7.616-3.409,7.616-7.616C-30.063,53.244-33.473,49.834-37.679,49.834z M-37.097,55.438c0,0.497-0.275,0.896-0.663,1.199
		c-0.379,0.297-0.451,0.421-0.451,0.673c0,0.214,0.453,0.534,0.661,0.69c0.725,0.544,0.872,0.887,0.872,1.565
		c0,0.849-0.914,1.691-2.401,1.691c-1.304,0-2.405-0.529-2.405-1.379c0-0.861,0.913-1.759,2.217-1.759
		c0.142,0,0.272-0.004,0.407-0.004c-0.179-0.174-0.323-0.323-0.323-0.585c0-0.156,0.049-0.306,0.119-0.438
		c-0.071,0.004-0.144,0.01-0.218,0.01c-1.072,0-1.696-0.754-1.696-1.696c0-0.925,0.95-1.766,2.089-1.766c0.586,0,2.244,0,2.244,0
		l-0.501,0.527h-0.59C-37.318,54.406-37.097,54.896-37.097,55.438z M-33.874,55.299h-1.036v1.035h-0.518v-1.035h-1.036v-0.518h1.036
		v-1.035h0.518v1.035h1.036V55.299z"/>
</g>
<g>
	<path fill="#ED3437" d="M-19.415,56.424c0.059,0,0.105-0.016,0.139-0.048c0.036-0.032,0.053-0.077,0.053-0.135v-1.156
		c0-0.046-0.018-0.084-0.053-0.112c-0.035-0.029-0.082-0.043-0.139-0.043c-0.053,0-0.096,0.014-0.129,0.043
		c-0.032,0.028-0.049,0.066-0.049,0.112v1.156c0,0.059,0.016,0.104,0.046,0.135C-19.517,56.41-19.473,56.424-19.415,56.424z"/>
	<path fill="#ED3437" d="M-18.458,58.561c-0.061,0-0.119,0.017-0.179,0.046c-0.058,0.03-0.112,0.076-0.165,0.135v-0.843h-0.389
		v2.613h0.389v-0.146c0.05,0.06,0.106,0.103,0.165,0.13c0.059,0.028,0.125,0.042,0.202,0.042c0.113,0,0.202-0.035,0.261-0.108
		c0.062-0.074,0.091-0.178,0.091-0.313v-1.07c0-0.157-0.032-0.278-0.097-0.36C-18.243,58.602-18.336,58.561-18.458,58.561z
		 M-18.479,60.061c0,0.063-0.011,0.105-0.033,0.133s-0.057,0.041-0.104,0.041c-0.032,0-0.063-0.007-0.093-0.021
		c-0.03-0.013-0.061-0.038-0.091-0.067v-1.201c0.026-0.026,0.052-0.047,0.079-0.061c0.027-0.012,0.055-0.018,0.082-0.018
		c0.052,0,0.092,0.016,0.12,0.05c0.028,0.033,0.041,0.083,0.041,0.147L-18.479,60.061L-18.479,60.061z"/>
	<polygon fill="#ED3437" points="-22.083,58.279 -21.633,58.279 -21.633,60.512 -21.199,60.512 -21.199,58.279 -20.749,58.279 
		-20.749,57.898 -22.083,57.898 	"/>
	<path fill="#ED3437" d="M-19.865,60.049c-0.036,0.041-0.076,0.076-0.12,0.104c-0.043,0.027-0.079,0.04-0.107,0.04
		c-0.037,0-0.063-0.009-0.079-0.029c-0.016-0.021-0.024-0.054-0.024-0.101v-1.479h-0.385v1.61c0,0.116,0.022,0.201,0.067,0.259
		c0.046,0.059,0.113,0.087,0.202,0.087c0.073,0,0.147-0.021,0.224-0.063c0.077-0.041,0.151-0.1,0.222-0.178v0.211h0.385v-1.928
		h-0.385V60.049z"/>
	<path fill="#ED3437" d="M-19.348,49.969c-4.206,0-7.616,3.41-7.616,7.616s3.41,7.616,7.616,7.616c4.207,0,7.616-3.41,7.616-7.616
		S-15.141,49.969-19.348,49.969z M-18.43,54.615h0.433v1.628c0,0.05,0.01,0.087,0.028,0.107c0.018,0.023,0.048,0.035,0.088,0.035
		c0.032,0,0.073-0.016,0.122-0.045c0.048-0.031,0.093-0.068,0.133-0.114v-1.611h0.434v2.123h-0.434v-0.234
		c-0.079,0.086-0.163,0.152-0.249,0.197s-0.17,0.068-0.252,0.068c-0.101,0-0.176-0.032-0.227-0.097
		c-0.05-0.063-0.076-0.157-0.076-0.283V54.615z M-20.04,55.101c0-0.165,0.059-0.296,0.175-0.392
		c0.116-0.099,0.274-0.146,0.472-0.146c0.179,0,0.326,0.052,0.441,0.153c0.113,0.103,0.171,0.235,0.171,0.396v1.098
		c0,0.183-0.056,0.323-0.168,0.427c-0.113,0.104-0.268,0.156-0.465,0.156c-0.19,0-0.341-0.056-0.456-0.161
		c-0.114-0.106-0.17-0.25-0.17-0.431V55.101z M-21.222,53.86l0.317,1.151h0.03l0.302-1.151h0.497l-0.569,1.686v1.192h-0.488v-1.141
		l-0.581-1.737H-21.222z M-15.54,59.918c0,0.768-0.623,1.393-1.391,1.393h-4.834c-0.768,0-1.391-0.625-1.391-1.393V58.8
		c0-0.769,0.623-1.392,1.391-1.392h4.834c0.768,0,1.391,0.623,1.391,1.392V59.918z"/>
	<path fill="#ED3437" d="M-17.294,58.537c-0.173,0-0.313,0.051-0.422,0.155c-0.108,0.105-0.164,0.243-0.164,0.409v0.866
		c0,0.186,0.05,0.332,0.149,0.438c0.1,0.105,0.235,0.158,0.408,0.158c0.191,0,0.336-0.049,0.432-0.147
		c0.098-0.103,0.145-0.25,0.145-0.447v-0.1h-0.396v0.088c0,0.112-0.014,0.188-0.038,0.221c-0.026,0.033-0.071,0.05-0.135,0.05
		c-0.062,0-0.105-0.02-0.13-0.059c-0.025-0.04-0.038-0.11-0.038-0.212v-0.362h0.737v-0.492c0-0.183-0.047-0.321-0.142-0.42
		C-16.982,58.585-17.118,58.537-17.294,58.537z M-17.142,59.295h-0.341V59.1c0-0.08,0.013-0.139,0.04-0.172
		c0.027-0.037,0.071-0.055,0.132-0.055c0.059,0,0.102,0.018,0.128,0.055c0.027,0.033,0.041,0.092,0.041,0.172V59.295z"/>
</g>
<path fill="#F48020" d="M-0.287,49.977c-4.206,0-7.616,3.41-7.616,7.616c0,4.207,3.41,7.616,7.616,7.616
	c4.207,0,7.616-3.409,7.616-7.616C7.33,53.387,3.92,49.977-0.287,49.977z M-3.068,61.393c-0.559,0-1.011-0.453-1.011-1.012
	s0.452-1.01,1.011-1.01s1.011,0.451,1.011,1.01S-2.51,61.393-3.068,61.393z M-0.531,61.398c0-0.953-0.37-1.85-1.04-2.521
	c-0.669-0.673-1.56-1.044-2.507-1.044v-1.459c2.76,0,5.006,2.254,5.006,5.024H-0.531z M2.046,61.4c0-3.395-2.746-6.155-6.122-6.155
	v-1.459c4.181,0,7.582,3.416,7.582,7.614H2.046z"/>
<image overflow="visible" enable-background="new    " width="200" height="29" xlink:href="social.png"  transform="matrix(0.9999 0 0 0.9999 -6.0239 61.9377)">
</image>
<path fill="#CA2027" d="M69.547,17.054c-0.871,0-1.69-0.469-1.97-1.004c0,0-0.469,1.857-0.567,2.217
	c-0.35,1.269-1.377,2.536-1.456,2.64c-0.056,0.071-0.179,0.049-0.192-0.047c-0.022-0.16-0.285-1.76,0.024-3.064
	c0.155-0.654,1.038-4.395,1.038-4.395s-0.258-0.514-0.258-1.273c0-1.197,0.694-2.088,1.556-2.088c0.734,0,1.087,0.55,1.087,1.21
	c0,0.735-0.469,1.841-0.711,2.861c-0.202,0.856,0.429,1.553,1.272,1.553c1.528,0,2.557-1.962,2.557-4.288
	c0-1.767-1.19-3.089-3.356-3.089c-2.445,0-3.969,1.825-3.969,3.862c0,0.703,0.207,1.197,0.532,1.58
	c0.149,0.177,0.17,0.249,0.116,0.45c-0.039,0.148-0.127,0.506-0.165,0.646c-0.053,0.206-0.219,0.277-0.404,0.201
	c-1.126-0.458-1.651-1.692-1.651-3.081c0-2.289,1.932-5.036,5.763-5.036c3.079,0,5.105,2.228,5.105,4.619
	C73.898,14.69,72.139,17.054,69.547,17.054z"/>
</svg>
