<?xml version="1.0" encoding="utf-8"?>
<!-- Generator: Adobe Illustrator 16.0.0, SVG Export Plug-In . SVG Version: 6.00 Build 0)  -->
<!DOCTYPE svg PUBLIC "-//W3C//DTD SVG 1.1//EN" "http://www.w3.org/Graphics/SVG/1.1/DTD/svg11.dtd">
<svg version="1.1" id="Layer_1" xmlns="http://www.w3.org/2000/svg" xmlns:xlink="http://www.w3.org/1999/xlink" x="0px" y="0px"
	 width="203px" height="39px" viewBox="0 0 203 39" enable-background="new 0 0 203 39" xml:space="preserve">
<path fill="#36609F" d="M19.534,3.337c-8.836,0-16,7.164-16,16c0,8.838,7.164,16,16,16c8.837,0,16-7.162,16-16
	C35.534,10.501,28.371,3.337,19.534,3.337z M22.962,19.343H20.72c0,3.582,0,7.994,0,7.994h-3.322c0,0,0-4.367,0-7.994h-1.58v-2.824
	h1.58V14.69c0-1.309,0.621-3.354,3.353-3.354l2.461,0.01v2.742c0,0-1.496,0-1.786,0c-0.291,0-0.705,0.145-0.705,0.77v1.66h2.533
	L22.962,19.343z"/>
<path fill="#2AA9E0" d="M60.251,3.621c-8.836,0-16,7.164-16,16c0,8.838,7.164,16,16,16s16-7.162,16-16
	C76.251,10.785,69.087,3.621,60.251,3.621z M66.613,16.359c0.007,0.141,0.01,0.281,0.01,0.424c0,4.338-3.302,9.34-9.34,9.34
	c-1.854,0-3.579-0.543-5.032-1.475c0.258,0.029,0.519,0.045,0.783,0.045c1.539,0,2.953-0.523,4.076-1.404
	c-1.436-0.027-2.648-0.977-3.065-2.279c0.2,0.037,0.405,0.059,0.617,0.059c0.3,0,0.59-0.041,0.864-0.115
	c-1.5-0.303-2.633-1.629-2.633-3.219c0-0.014,0-0.027,0-0.041c0.443,0.246,0.949,0.393,1.487,0.41
	c-0.881-0.588-1.46-1.594-1.46-2.732c0-0.602,0.162-1.166,0.444-1.65c1.618,1.986,4.038,3.293,6.766,3.43
	c-0.056-0.24-0.085-0.49-0.085-0.748c0-1.813,1.47-3.281,3.283-3.281c0.943,0,1.797,0.398,2.396,1.035
	c0.747-0.146,1.45-0.42,2.085-0.797c-0.246,0.768-0.766,1.41-1.443,1.816c0.664-0.078,1.297-0.256,1.885-0.516
	C67.812,15.318,67.255,15.896,66.613,16.359z"/>
<g>
	<path fill="#DB5442" d="M98.348,11.537c-1.27-0.037-2.123,1.24-1.902,2.908c0.219,1.67,1.426,2.836,2.697,2.875
		c1.271,0.037,2.002-1.037,1.783-2.707C100.707,12.945,99.619,11.576,98.348,11.537z"/>
	<path fill="#DB5442" d="M98.883,20.736c-1.895-0.021-3.5,1.195-3.5,2.607c0,1.439,1.369,2.639,3.262,2.639
		c2.664,0,3.592-1.125,3.592-2.566c0-0.174-0.021-0.344-0.061-0.508c-0.209-0.814-1.037-1.262-2.066-1.977
		C99.736,20.811,99.324,20.74,98.883,20.736z"/>
	<path fill="#DB5442" d="M101.598,2.77c-8.836,0-16,7.164-16,16c0,8.838,7.164,16,16,16s16-7.162,16-16
		C117.598,9.934,110.434,2.77,101.598,2.77z M102.82,14.543c0,1.043-0.578,1.883-1.393,2.52c-0.797,0.623-0.947,0.883-0.947,1.412
		c0,0.451,0.951,1.123,1.389,1.451c1.521,1.143,1.83,1.861,1.83,3.289c0,1.783-1.92,3.555-5.043,3.555
		c-2.74,0-5.053-1.113-5.053-2.896c0-1.809,1.918-3.695,4.658-3.695c0.299,0,0.572-0.008,0.855-0.008
		c-0.375-0.363-0.678-0.678-0.678-1.229c0-0.328,0.104-0.641,0.25-0.92c-0.148,0.01-0.301,0.02-0.457,0.02
		c-2.252,0-3.563-1.582-3.563-3.564c0-1.941,1.996-3.707,4.389-3.707c1.232,0,4.715,0,4.715,0l-1.053,1.107h-1.238
		C102.355,12.377,102.82,13.406,102.82,14.543z M109.592,14.252h-2.176v2.174h-1.088v-2.174h-2.176v-1.088h2.176v-2.176h1.088v2.176
		h2.176V14.252z"/>
</g>
<g>
	<path fill="#ED3437" d="M139.967,16.616c0.123,0,0.221-0.033,0.293-0.102c0.074-0.068,0.111-0.164,0.111-0.283v-2.43
		c0-0.098-0.037-0.176-0.111-0.236s-0.172-0.09-0.293-0.09c-0.111,0-0.201,0.029-0.271,0.09c-0.068,0.061-0.104,0.139-0.104,0.236
		v2.43c0,0.123,0.033,0.217,0.098,0.283C139.754,16.584,139.846,16.616,139.967,16.616z"/>
	<path fill="#ED3437" d="M141.979,21.104c-0.127,0-0.25,0.031-0.375,0.096c-0.121,0.064-0.236,0.16-0.346,0.281v-1.767h-0.818v5.49
		h0.818v-0.311c0.105,0.125,0.223,0.215,0.346,0.273c0.123,0.061,0.264,0.088,0.424,0.088c0.238,0,0.424-0.074,0.549-0.229
		c0.129-0.154,0.191-0.373,0.191-0.658v-2.248c0-0.332-0.066-0.584-0.203-0.758C142.43,21.189,142.234,21.104,141.979,21.104z
		 M141.934,24.254c0,0.131-0.023,0.223-0.07,0.279c-0.047,0.059-0.119,0.088-0.219,0.088c-0.068,0-0.133-0.016-0.195-0.045
		c-0.063-0.027-0.127-0.078-0.191-0.143V21.91c0.055-0.057,0.109-0.098,0.166-0.125c0.057-0.025,0.115-0.039,0.172-0.039
		c0.109,0,0.193,0.035,0.252,0.105s0.086,0.174,0.086,0.313V24.254z"/>
	<polygon fill="#ED3437" points="134.363,20.512 135.307,20.512 135.307,25.203 136.219,25.203 136.219,20.512 137.164,20.512 
		137.164,19.713 134.363,19.713 	"/>
	<path fill="#ED3437" d="M139.021,24.229c-0.076,0.088-0.16,0.16-0.252,0.219c-0.09,0.057-0.166,0.084-0.225,0.084
		c-0.076,0-0.131-0.02-0.166-0.064c-0.033-0.043-0.051-0.111-0.051-0.207v-3.107h-0.809v3.387c0,0.242,0.047,0.42,0.141,0.541
		c0.096,0.123,0.236,0.182,0.424,0.182c0.152,0,0.309-0.041,0.471-0.129c0.162-0.086,0.316-0.211,0.467-0.375v0.445h0.809v-4.051
		h-0.809V24.229z"/>
	<path fill="#ED3437" d="M140.107,3.053c-8.836,0-16,7.164-16,16c0,8.837,7.164,16,16,16c8.838,0,16-7.162,16-16
		C156.107,10.217,148.945,3.053,140.107,3.053z M142.037,12.815h0.91v3.42c0,0.105,0.021,0.182,0.059,0.229
		c0.037,0.049,0.102,0.072,0.186,0.072c0.066,0,0.152-0.031,0.256-0.094c0.102-0.064,0.195-0.143,0.279-0.24v-3.387h0.912v4.461
		h-0.912v-0.494c-0.166,0.182-0.342,0.322-0.523,0.416s-0.357,0.145-0.529,0.145c-0.211,0-0.369-0.068-0.477-0.203
		c-0.105-0.131-0.16-0.33-0.16-0.596V12.815z M138.654,13.834c0-0.346,0.123-0.621,0.367-0.824c0.244-0.205,0.576-0.307,0.99-0.307
		c0.377,0,0.686,0.107,0.928,0.322c0.238,0.215,0.359,0.496,0.359,0.834v2.305c0,0.383-0.117,0.68-0.354,0.898
		c-0.236,0.217-0.563,0.326-0.977,0.326c-0.398,0-0.717-0.113-0.957-0.338c-0.238-0.225-0.357-0.525-0.357-0.904V13.834z
		 M136.172,11.229l0.666,2.418h0.064l0.635-2.418h1.043l-1.195,3.539v2.508h-1.025v-2.396l-1.221-3.65H136.172z M148.107,23.955
		c0,1.613-1.309,2.924-2.922,2.924h-10.156c-1.613,0-2.922-1.311-2.922-2.924v-2.35c0-1.613,1.309-2.923,2.922-2.923h10.156
		c1.613,0,2.922,1.311,2.922,2.923V23.955z"/>
	<path fill="#ED3437" d="M144.422,21.053c-0.363,0-0.656,0.109-0.887,0.33c-0.229,0.221-0.344,0.51-0.344,0.859v1.818
		c0,0.391,0.105,0.697,0.313,0.918c0.209,0.225,0.494,0.334,0.857,0.334c0.402,0,0.707-0.104,0.908-0.313
		c0.205-0.211,0.305-0.523,0.305-0.939v-0.207h-0.832v0.184c0,0.238-0.029,0.393-0.08,0.463c-0.055,0.07-0.148,0.105-0.283,0.105
		c-0.129,0-0.221-0.041-0.273-0.123c-0.053-0.084-0.08-0.232-0.08-0.445v-0.762h1.549v-1.033c0-0.385-0.1-0.678-0.299-0.883
		C145.078,21.154,144.793,21.053,144.422,21.053z M144.742,22.645h-0.717v-0.408c0-0.17,0.027-0.293,0.084-0.363
		c0.057-0.076,0.148-0.113,0.277-0.113c0.123,0,0.215,0.037,0.27,0.113c0.057,0.07,0.086,0.193,0.086,0.363V22.645z"/>
</g>
<path fill="#F48020" d="M180.153,3.07c-8.837,0-16,7.164-16,16c0,8.838,7.163,16,16,16s16-7.162,16-16
	C196.153,10.234,188.99,3.07,180.153,3.07z M174.309,27.053c-1.173,0-2.123-0.951-2.123-2.125s0.95-2.123,2.123-2.123
	c1.174,0,2.125,0.949,2.125,2.123S175.482,27.053,174.309,27.053z M179.639,27.066c0-2.004-0.776-3.887-2.185-5.301
	c-1.405-1.414-3.276-2.192-5.267-2.192v-3.066c5.799,0,10.518,4.737,10.518,10.559H179.639z M185.055,27.07
	c0-7.131-5.77-12.934-12.862-12.934V11.07c8.783,0,15.929,7.178,15.929,16H185.055z"/>
</svg>
