<?xml version="1.0" encoding="utf-8"?>
<!-- Generator: Adobe Illustrator 16.0.0, SVG Export Plug-In . SVG Version: 6.00 Build 0)  -->
<!DOCTYPE svg PUBLIC "-//W3C//DTD SVG 1.1//EN" "http://www.w3.org/Graphics/SVG/1.1/DTD/svg11.dtd">
<svg version="1.1" id="Layer_1" xmlns="http://www.w3.org/2000/svg" xmlns:xlink="http://www.w3.org/1999/xlink" x="0px" y="0px"
	 width="181.333px" height="85.334px" viewBox="0 0 181.333 85.334" enable-background="new 0 0 181.333 85.334"
	 xml:space="preserve">
<g>
	<path fill-rule="evenodd" clip-rule="evenodd" fill="#A5CD39" d="M19.688,62.144c-6.857-20.526,18.892-28.335,25.914-51.26
		c0.431,18.87-4.966,50.307-26.003,50.29c-0.047,0.085-0.096,0.172-0.144,0.257c21.951,1.577,28.043-28.867,27.167-53.536
		C35.193,36.612,11.22,39.879,18.528,62.489C18.924,62.321,19.491,62.176,19.688,62.144"/>
	<path fill-rule="evenodd" clip-rule="evenodd" fill="#A5CD39" d="M4.914,68.391c18.249-2.83,26.726-21.796,32.153-31.287
		C26.14,57.228,14.324,67.862,4.87,66.833C4.87,67.373,4.962,68.064,4.914,68.391"/>
	<polygon fill="#004F27" points="32.888,61.854 32.888,30.177 39.292,30.177 52.632,51.329 52.632,30.177 58.747,30.177 
		58.747,61.854 52.139,61.854 39.003,41.197 39.003,61.854 	"/>
	<path fill="#004F27" d="M81.201,61.854v-3.439c-0.865,1.226-1.996,2.191-3.393,2.899c-1.403,0.701-2.883,1.054-4.438,1.054
		c-1.587,0-3.005-0.338-4.265-1.01c-1.26-0.678-2.169-1.628-2.74-2.854c-0.561-1.224-0.842-2.921-0.842-5.082V38.91h6.245v10.538
		c0,3.23,0.114,5.206,0.35,5.937c0.228,0.723,0.645,1.297,1.252,1.728c0.607,0.425,1.379,0.633,2.314,0.633
		c1.069,0,2.025-0.278,2.868-0.847c0.842-0.577,1.42-1.277,1.73-2.119c0.311-0.848,0.47-2.912,0.47-6.194V38.91h6.246v22.944H81.201
		z"/>
	<path fill="#004F27" d="M135.304,48.416c-0.045-1.763-0.51-3.097-1.396-4.013c-0.887-0.914-1.973-1.372-3.248-1.372
		c-1.364,0-2.488,0.487-3.377,1.455c-0.887,0.958-1.327,2.27-1.312,3.93H135.304z M134.947,54.551l6.229,1.009
		c-0.804,2.222-2.064,3.91-3.794,5.067c-1.723,1.165-3.885,1.74-6.48,1.74c-4.105,0-7.141-1.297-9.113-3.908
		c-1.555-2.086-2.336-4.726-2.336-7.907c0-3.804,1.024-6.783,3.074-8.937c2.04-2.153,4.627-3.23,7.755-3.23
		c3.513,0,6.281,1.128,8.315,3.385c2.025,2.256,2.997,5.707,2.915,10.362h-15.655c0.045,1.798,0.547,3.2,1.51,4.195
		c0.964,1.004,2.17,1.506,3.604,1.506c0.979,0,1.799-0.26,2.465-0.775C134.104,56.536,134.612,55.702,134.947,54.551z"/>
	<path fill="#004F27" d="M168.077,61.854h-6.246V50.14c0-2.476-0.138-4.077-0.403-4.806c-0.264-0.723-0.705-1.291-1.307-1.697
		c-0.598-0.398-1.318-0.605-2.161-0.605c-1.083,0-2.057,0.288-2.912,0.863c-0.858,0.583-1.451,1.343-1.768,2.293
		c-0.32,0.953-0.48,2.708-0.48,5.274v10.393h-6.244V38.91h5.798v3.37c2.063-2.596,4.658-3.894,7.785-3.894
		c1.374,0,2.641,0.245,3.78,0.722c1.136,0.487,2.002,1.099,2.586,1.851c0.585,0.754,0.993,1.602,1.221,2.553
		c0.236,0.951,0.352,2.308,0.352,4.077V61.854z"/>
	<polygon fill="#004F27" points="90.685,61.854 90.685,56.085 107.805,35.539 92.62,35.539 92.62,30.177 116.476,30.177 
		116.476,35.148 98.622,56.514 117.167,56.514 117.167,61.854 	"/>
	<path fill="#004F27" d="M163.31,74.206l0.952-0.502c0.09,0.375,0.258,0.66,0.496,0.854c0.241,0.198,0.552,0.295,0.925,0.295
		c0.356,0,0.64-0.113,0.848-0.338s0.313-0.525,0.313-0.902c0-0.493-0.357-0.933-1.075-1.314c-0.099-0.059-0.176-0.102-0.23-0.128
		c-0.81-0.451-1.35-0.857-1.618-1.222c-0.27-0.364-0.407-0.812-0.407-1.335c0-0.684,0.207-1.236,0.612-1.661
		c0.406-0.423,0.941-0.635,1.599-0.635c0.544,0,0.997,0.119,1.364,0.357c0.365,0.239,0.618,0.583,0.757,1.028l-0.936,0.548
		c-0.147-0.263-0.307-0.455-0.485-0.576c-0.173-0.122-0.376-0.183-0.604-0.183c-0.32,0-0.575,0.096-0.765,0.285
		c-0.192,0.19-0.285,0.447-0.285,0.767c0,0.504,0.413,0.974,1.248,1.406c0.063,0.034,0.112,0.063,0.147,0.081
		c0.728,0.382,1.226,0.755,1.498,1.119c0.271,0.363,0.405,0.821,0.405,1.365c0,0.793-0.219,1.422-0.658,1.89
		c-0.438,0.467-1.028,0.699-1.777,0.699c-0.625,0-1.139-0.161-1.539-0.489C163.694,75.288,163.43,74.819,163.31,74.206
		 M143.169,75.885v-8.377h1.197v7.159h2.673v1.218H143.169z M125.493,75.885l-0.835-2.158h-2.912l-0.854,2.158h-1.256l3.561-8.708
		l3.556,8.708H125.493z M122.188,72.594h2.049l-0.753-1.909c-0.043-0.124-0.089-0.266-0.136-0.423
		c-0.046-0.158-0.093-0.334-0.14-0.528c-0.041,0.185-0.083,0.354-0.13,0.512c-0.043,0.16-0.09,0.304-0.136,0.439L122.188,72.594z
		 M98.985,75.885v-8.377h1.853c0.531,0,0.922,0.033,1.174,0.098c0.251,0.064,0.467,0.172,0.645,0.321
		c0.228,0.19,0.404,0.441,0.53,0.749c0.125,0.31,0.188,0.651,0.188,1.023c0,0.447-0.091,0.821-0.271,1.121
		c-0.182,0.299-0.444,0.507-0.788,0.627c0.428,0.074,0.767,0.297,1.014,0.663c0.246,0.37,0.367,0.834,0.367,1.394
		c0,0.34-0.051,0.662-0.155,0.968c-0.103,0.305-0.251,0.566-0.443,0.778c-0.2,0.232-0.448,0.396-0.748,0.491
		c-0.299,0.098-0.798,0.144-1.502,0.144H98.985z M100.157,74.746h0.412c0.418,0,0.732-0.02,0.939-0.057
		c0.208-0.04,0.37-0.104,0.493-0.202c0.146-0.109,0.26-0.259,0.34-0.445c0.081-0.186,0.121-0.392,0.121-0.618
		c0-0.266-0.048-0.5-0.145-0.696c-0.098-0.198-0.237-0.354-0.417-0.463c-0.112-0.067-0.243-0.113-0.39-0.146
		c-0.145-0.028-0.339-0.044-0.579-0.044h-0.362h-0.412V74.746z M100.157,71.047h0.456c0.57,0,0.972-0.09,1.209-0.268
		c0.234-0.176,0.352-0.476,0.352-0.896c0-0.457-0.108-0.778-0.325-0.965c-0.218-0.186-0.63-0.277-1.237-0.277h-0.456V71.047z
		 M78.622,72.137v3.748h-1.119v-8.377h1.666c0.489,0,0.87,0.037,1.139,0.109c0.269,0.071,0.499,0.19,0.691,0.36
		c0.228,0.202,0.403,0.466,0.528,0.785c0.124,0.319,0.185,0.669,0.185,1.052c0,0.67-0.143,1.195-0.428,1.576
		c-0.283,0.38-0.706,0.608-1.261,0.684l2.533,3.811h-1.351l-2.448-3.748H78.622z M78.697,71.079h0.216
		c0.632,0,1.052-0.085,1.259-0.253c0.208-0.168,0.313-0.466,0.313-0.893c0-0.461-0.111-0.785-0.334-0.975
		c-0.222-0.188-0.636-0.283-1.237-0.283h-0.216V71.079z M56.304,75.885v-8.377h4.106v1.157h-2.909v2.101h2.909v1.193h-2.909v2.708
		h2.909v1.218H56.304z M32.888,75.885v-8.377h1.195V70.6H37.7v-3.092h1.195v8.377H37.7v-4.067h-3.618v4.067H32.888z"/>
	<g>
		<path fill="#004F27" d="M171.145,32.379c0.295-0.05,0.74-0.085,1.234-0.085c0.608,0,1.036,0.09,1.328,0.322
			c0.243,0.195,0.378,0.481,0.378,0.858c0,0.524-0.37,0.884-0.725,1.012v0.019c0.285,0.115,0.444,0.39,0.549,0.767
			c0.126,0.463,0.255,0.999,0.335,1.157h-0.952c-0.065-0.116-0.165-0.451-0.285-0.956c-0.11-0.512-0.285-0.651-0.664-0.659h-0.28
			v1.614h-0.918V32.379z M172.063,34.145h0.365c0.464,0,0.737-0.232,0.737-0.591c0-0.377-0.258-0.566-0.683-0.573
			c-0.225,0-0.354,0.019-0.42,0.031V34.145z"/>
	</g>
	<path fill="#004F27" d="M172.428,38.18c-2.225,0-4.032-1.81-4.032-4.035c0-2.224,1.808-4.035,4.032-4.035s4.035,1.811,4.035,4.035
		C176.463,36.37,174.652,38.18,172.428,38.18z M172.428,30.577c-1.967,0-3.569,1.601-3.569,3.568s1.603,3.567,3.569,3.567
		s3.569-1.6,3.569-3.567S174.395,30.577,172.428,30.577z"/>
</g>
</svg>
